<?xml version="1.0"?><svg width="793.7007874015749" height="1122.5196850393702" xmlns="http://www.w3.org/2000/svg" xmlns:xlink="http://www.w3.org/1999/xlink">
 <defs>
  <linearGradient xlink:href="#linearGradient3255-7" id="linearGradient2750" x1="0.731298" y1="0.733588" x2="0.080435" y2="0.094211"/>
  <linearGradient id="linearGradient3255-7">
   <stop stop-color="#000000" offset="0" id="stop3257-4"/>
   <stop stop-color="#000000" stop-opacity="0" offset="1" id="stop3259-0"/>
  </linearGradient>
  <linearGradient id="linearGradient3247-4">
   <stop stop-color="#ffff91" offset="0" id="stop3249-8"/>
   <stop stop-color="#000000" stop-opacity="0" offset="1" id="stop3251-8"/>
  </linearGradient>
  <linearGradient xlink:href="#linearGradient3247-4" id="linearGradient3068" x1="0.815489" y1="0.769337" x2="0.459181" y2="0.447706"/>
 </defs>
 <metadata id="metadata3075">image/svg+xml</metadata>
 <g>
  <title>Layer 1</title>
  <g id="layer1">
   <g id="g2740" transform="matrix(0.728554, -0.000474756, 0.000474461, 0.728167, -916.653, 217.989)">
    <path fill="#ffe01a" fill-rule="evenodd" id="path2742" d="m1991.038208,523.803162l0,-331.442291l-447.486938,0l0,449.076508l331.442261,0l116.044678,-117.634216z"/>
    <path fill="url(#linearGradient2750)" fill-rule="evenodd" stroke="#000000" stroke-width="0" stroke-miterlimit="4" d="m1872.082031,641.98114c0,0 2.388672,2.913208 20.974854,-11.071716c18.586182,-13.984924 79.253174,-75.995056 91.092285,-94.62854c11.839111,-18.633484 5.660156,-14.781982 5.660156,-14.781982c0,0 -5.592163,3.954285 -11.861206,6.80127c-6.036743,2.741516 -11.675903,4.254883 -19.925415,5.783813c-7.980713,1.479187 -26.696289,1.585815 -36.07312,2.083252c-9.376709,0.497437 -33.609619,-0.999634 -33.609619,-0.999634c0,0 4.132813,55.185974 2.70752,66.05426c-1.425171,10.868347 -0.926514,15.121948 -4.204468,20.596252c-3.277832,5.474365 -7.057861,11.231506 -10.105469,14.555786c-3.047607,3.32428 -4.655518,5.607239 -4.655518,5.607239z" id="path2744"/>
    <path fill="#ffff90" fill-rule="evenodd" stroke="#000000" stroke-width="0" stroke-miterlimit="4" d="m1872.637329,641.97467c0,0 2.388672,2.913208 20.974854,-11.071777c18.586182,-13.984863 79.253174,-75.994995 91.092285,-94.628479c11.839111,-18.633484 5.660156,-14.782043 5.660156,-14.782043c0,0 -8.517212,11.310364 -13.15625,14.868713c-4.639038,3.558411 -9.984497,6.456726 -17.116943,8.528076c-7.132568,2.071411 -20.853149,2.628967 -30.22998,3.126343c-9.376831,0.497437 -32.20874,0.094788 -32.20874,0.094788c0,0 2.874634,42.427673 1.449463,53.296021c-1.425293,10.868347 -2.333984,13.472168 -5.611938,18.946533c-3.277954,5.474304 -13.14978,12.690247 -16.197388,16.014526c-3.047607,3.32428 -4.655518,5.6073 -4.655518,5.6073z" id="path2746"/>
    <path fill="url(#linearGradient3068)" fill-rule="evenodd" stroke="#000000" stroke-width="0" stroke-miterlimit="4" d="m1872.469971,641.809998c0,0 2.390015,2.914001 20.969971,-11.070984c18.590088,-13.984985 79.25,-75.994995 91.090088,-94.629028c11.839966,-18.632996 5.659912,-14.781982 5.659912,-14.781982c0,0 -8.509888,11.309998 -13.149902,14.869019c-4.640015,3.557983 -9.98999,6.45697 -17.119995,8.527954c-7.130005,2.071045 -20.850098,2.629028 -30.230103,3.126038c-9.379883,0.497986 -32.209961,0.094971 -32.209961,0.094971c0,0 2.880005,42.42804 1.450073,53.296021c-1.420044,10.867981 -2.330078,13.471985 -5.610107,18.947021c-3.279907,5.473999 -13.149902,12.690002 -16.199951,16.013977c-3.050049,3.323975 -4.650024,5.606995 -4.650024,5.606995l0,0z" id="path2748"/>
   </g>
  </g>
 </g>
</svg>